<svg xmlns="http://www.w3.org/2000/svg" xmlns:xlink="http://www.w3.org/1999/xlink" width="500" zoomAndPan="magnify" viewBox="0 0 375 374.999991" height="500" preserveAspectRatio="xMidYMid meet" version="1.0"><path stroke-linecap="round" transform="matrix(14.062499, 0, 0, 14.062499, 18.750003, 18.749999)" fill="none" stroke-linejoin="round" d="M 22.000001 18.000001 L 6 18.000001 C 5.934445 18.000001 5.869167 17.996668 5.803889 17.990279 C 5.738889 17.98389 5.674167 17.974446 5.609722 17.961668 C 5.545556 17.94889 5.482222 17.932779 5.419445 17.91389 C 5.356667 17.895001 5.295278 17.872779 5.234722 17.847779 C 5.174167 17.822779 5.115 17.794723 5.057222 17.76389 C 4.999445 17.733057 4.943333 17.699446 4.888889 17.663057 C 4.834445 17.626668 4.781945 17.587501 4.731111 17.546112 C 4.680556 17.504446 4.632222 17.460557 4.585833 17.414168 C 4.539445 17.367779 4.495556 17.319446 4.453889 17.26889 C 4.4125 17.218057 4.373333 17.165557 4.336944 17.111112 C 4.300556 17.056668 4.266944 17.000557 4.236111 16.942779 C 4.205278 16.885001 4.177222 16.825835 4.152222 16.765279 C 4.127222 16.704723 4.105 16.643335 4.086111 16.580557 C 4.067222 16.517779 4.051111 16.454446 4.038333 16.390279 C 4.025556 16.325834 4.016111 16.261112 4.009722 16.196112 C 4.003333 16.130834 4 16.065557 4 16.000001 L 4 7.000001 C 4 6.934445 3.996667 6.869167 3.990278 6.803889 C 3.983889 6.738889 3.974444 6.674167 3.961667 6.609723 C 3.948889 6.545556 3.932778 6.482223 3.913889 6.419445 C 3.895 6.356667 3.872778 6.295278 3.847778 6.234723 C 3.822778 6.174167 3.794722 6.115 3.763889 6.057223 C 3.733056 5.999445 3.699444 5.943334 3.663056 5.888889 C 3.626667 5.834445 3.5875 5.781945 3.546111 5.731112 C 3.504444 5.680556 3.460556 5.632223 3.414167 5.585834 C 3.367778 5.539445 3.319444 5.495556 3.268889 5.453889 C 3.218056 5.4125 3.165556 5.373334 3.111111 5.336945 C 3.056667 5.300556 3.000556 5.266945 2.942778 5.236112 C 2.885 5.205278 2.825833 5.177223 2.765278 5.152223 C 2.704722 5.127223 2.643333 5.105 2.580555 5.086112 C 2.517778 5.067223 2.454444 5.051112 2.390278 5.038334 C 2.325833 5.025556 2.261111 5.016112 2.196111 5.009723 C 2.130833 5.003334 2.065555 5 2 5 " stroke="#193cb8" stroke-width="2.25" stroke-opacity="1" stroke-miterlimit="4"/><path stroke-linecap="round" transform="matrix(14.062499, 0, 0, 14.062499, 18.750003, 18.749999)" fill="none" stroke-linejoin="round" d="M 17.000001 14.000001 L 17.000001 4 C 17.000001 3.934445 16.996668 3.869167 16.990279 3.803889 C 16.98389 3.738889 16.974445 3.674167 16.961668 3.609723 C 16.94889 3.545556 16.932779 3.482223 16.91389 3.419445 C 16.895001 3.356667 16.872779 3.295278 16.847779 3.234723 C 16.822779 3.174167 16.794723 3.115 16.76389 3.057223 C 16.733056 2.999445 16.699445 2.943334 16.663056 2.888889 C 16.626668 2.834445 16.587501 2.781945 16.546112 2.731111 C 16.504445 2.680556 16.460556 2.632222 16.414168 2.585834 C 16.367779 2.539445 16.319445 2.495556 16.26889 2.453889 C 16.218056 2.4125 16.165556 2.373334 16.111112 2.336945 C 16.056667 2.300556 16.000556 2.266945 15.942779 2.236111 C 15.885001 2.205278 15.825834 2.177222 15.765279 2.152222 C 15.704723 2.127222 15.643334 2.105 15.580556 2.086111 C 15.517779 2.067222 15.454445 2.051111 15.390279 2.038334 C 15.325834 2.025556 15.261112 2.016111 15.196112 2.009722 C 15.130834 2.003334 15.065556 2 15.000001 2 L 14.000001 2 C 13.934445 2 13.869167 2.003334 13.80389 2.009722 C 13.73889 2.016111 13.674167 2.025556 13.609723 2.038334 C 13.545556 2.051111 13.482223 2.067222 13.419445 2.086111 C 13.356667 2.105 13.295278 2.127222 13.234723 2.152222 C 13.174167 2.177222 13.115001 2.205278 13.057223 2.236111 C 12.999445 2.266945 12.943334 2.300556 12.88889 2.336945 C 12.834445 2.373334 12.781945 2.4125 12.731112 2.453889 C 12.680556 2.495556 12.632223 2.539445 12.585834 2.585834 C 12.539445 2.632222 12.495556 2.680556 12.453889 2.731111 C 12.412501 2.781945 12.373334 2.834445 12.336945 2.888889 C 12.300556 2.943334 12.266945 2.999445 12.236112 3.057223 C 12.205278 3.115 12.177223 3.174167 12.152223 3.234723 C 12.127223 3.295278 12.105001 3.356667 12.086112 3.419445 C 12.067223 3.482223 12.051112 3.545556 12.038334 3.609723 C 12.025556 3.674167 12.016112 3.738889 12.009723 3.803889 C 12.003334 3.869167 12.000001 3.934445 12.000001 4 L 12.000001 14.000001 " stroke="#193cb8" stroke-width="2.25" stroke-opacity="1" stroke-miterlimit="4"/><path stroke-linecap="round" transform="matrix(14.062499, 0, 0, 14.062499, 18.750003, 18.749999)" fill="none" stroke-linejoin="round" d="M 9 6 L 20.000001 6 C 20.065557 6 20.130557 6.006389 20.195001 6.019167 C 20.259446 6.031945 20.321946 6.051112 20.382779 6.076112 C 20.443334 6.101112 20.501112 6.131945 20.555557 6.168612 C 20.610279 6.205 20.660557 6.246389 20.707223 6.292778 C 20.753612 6.339445 20.795001 6.389723 20.83139 6.444445 C 20.868057 6.498889 20.898612 6.556667 20.92389 6.617223 C 20.94889 6.678056 20.968057 6.740556 20.980834 6.805001 C 20.993612 6.869445 21.000001 6.934445 21.000001 7.000001 L 21.000001 13.000001 C 21.000001 13.065557 20.993612 13.130557 20.980834 13.195001 C 20.968057 13.259445 20.94889 13.321945 20.92389 13.382779 C 20.898612 13.443334 20.868057 13.500834 20.83139 13.555557 C 20.795001 13.610279 20.753612 13.660557 20.707223 13.707223 C 20.660557 13.753612 20.610279 13.795001 20.555557 13.83139 C 20.501112 13.868057 20.443334 13.898612 20.382779 13.92389 C 20.321946 13.94889 20.259446 13.968057 20.195001 13.980834 C 20.130557 13.993612 20.065557 14.000001 20.000001 14.000001 L 9 14.000001 C 8.934445 14.000001 8.869445 13.993612 8.805 13.980834 C 8.740556 13.968057 8.678056 13.94889 8.617223 13.92389 C 8.556667 13.898612 8.498889 13.868057 8.444445 13.83139 C 8.389723 13.795001 8.339445 13.753612 8.292778 13.707223 C 8.246389 13.660557 8.205 13.610279 8.168611 13.555557 C 8.131945 13.501112 8.101111 13.443334 8.076111 13.382779 C 8.051111 13.321945 8.031945 13.259445 8.019167 13.195001 C 8.006389 13.130557 8 13.065557 8 13.000001 L 8 7.000001 C 8 6.934445 8.006389 6.869445 8.019167 6.805001 C 8.031945 6.740556 8.051111 6.678056 8.076111 6.617223 C 8.101111 6.556667 8.131945 6.498889 8.168611 6.444445 C 8.205 6.389723 8.246389 6.339445 8.292778 6.292778 C 8.339445 6.246389 8.389723 6.205 8.444445 6.168612 C 8.498889 6.131945 8.556667 6.101112 8.617223 6.076112 C 8.678056 6.051112 8.740556 6.031945 8.805 6.019167 C 8.869445 6.006389 8.934445 6 9 6 Z M 9 6 " stroke="#193cb8" stroke-width="2.25" stroke-opacity="1" stroke-miterlimit="4"/><path stroke-linecap="round" transform="matrix(14.062499, 0, 0, 14.062499, 18.750003, 18.749999)" fill="none" stroke-linejoin="round" d="M 20.000001 20.000001 C 20.000001 20.065557 19.996668 20.130835 19.990279 20.196113 C 19.98389 20.261113 19.974446 20.325835 19.961668 20.390279 C 19.94889 20.454446 19.932779 20.517779 19.91389 20.580557 C 19.895001 20.643335 19.872779 20.704724 19.847779 20.765279 C 19.822779 20.825835 19.794723 20.885001 19.76389 20.942779 C 19.733057 21.000557 19.699446 21.056668 19.663057 21.111113 C 19.626668 21.165557 19.587501 21.218057 19.546112 21.26889 C 19.504445 21.319446 19.460557 21.367779 19.414168 21.414168 C 19.367779 21.460557 19.319445 21.504446 19.26889 21.546113 C 19.218057 21.587502 19.165557 21.626668 19.111112 21.663057 C 19.056668 21.699446 19.000557 21.733057 18.942779 21.76389 C 18.885001 21.794724 18.825834 21.822779 18.765279 21.847779 C 18.704723 21.872779 18.643334 21.895002 18.580557 21.91389 C 18.517779 21.932779 18.454445 21.94889 18.390279 21.961668 C 18.325834 21.974446 18.261112 21.98389 18.196112 21.990279 C 18.130834 21.996668 18.065557 22.000002 18.000001 22.000002 C 17.934445 22.000002 17.869168 21.996668 17.80389 21.990279 C 17.73889 21.98389 17.674168 21.974446 17.609723 21.961668 C 17.545556 21.94889 17.482223 21.932779 17.419445 21.91389 C 17.356668 21.895002 17.295279 21.872779 17.234723 21.847779 C 17.174168 21.822779 17.115001 21.794724 17.057223 21.76389 C 16.999445 21.733057 16.943334 21.699446 16.88889 21.663057 C 16.834445 21.626668 16.781945 21.587502 16.731112 21.546113 C 16.680556 21.504446 16.632223 21.460557 16.585834 21.414168 C 16.539445 21.367779 16.495556 21.319446 16.45389 21.26889 C 16.412501 21.218057 16.373334 21.165557 16.336945 21.111113 C 16.300556 21.056668 16.266945 21.000557 16.236112 20.942779 C 16.205279 20.885001 16.177223 20.825835 16.152223 20.765279 C 16.127223 20.704724 16.105001 20.643335 16.086112 20.580557 C 16.067223 20.517779 16.051112 20.454446 16.038334 20.390279 C 16.025556 20.325835 16.016112 20.261113 16.009723 20.196113 C 16.003334 20.130835 16.000001 20.065557 16.000001 20.000001 C 16.000001 19.934446 16.003334 19.869168 16.009723 19.80389 C 16.016112 19.73889 16.025556 19.674168 16.038334 19.609724 C 16.051112 19.545557 16.067223 19.482224 16.086112 19.419446 C 16.105001 19.356668 16.127223 19.295279 16.152223 19.234724 C 16.177223 19.174168 16.205279 19.115001 16.236112 19.057224 C 16.266945 18.999446 16.300556 18.943335 16.336945 18.88889 C 16.373334 18.834446 16.412501 18.781946 16.45389 18.731112 C 16.495556 18.680557 16.539445 18.632224 16.585834 18.585835 C 16.632223 18.539446 16.680556 18.495557 16.731112 18.45389 C 16.781945 18.412501 16.834445 18.373335 16.88889 18.336946 C 16.943334 18.300557 16.999445 18.266946 17.057223 18.236112 C 17.115001 18.205279 17.174168 18.177224 17.234723 18.152224 C 17.295279 18.127224 17.356668 18.105001 17.419445 18.086112 C 17.482223 18.067223 17.545556 18.051112 17.609723 18.038335 C 17.674168 18.025557 17.73889 18.016112 17.80389 18.009723 C 17.869168 18.003335 17.934445 18.000001 18.000001 18.000001 C 18.065557 18.000001 18.130834 18.003335 18.196112 18.009723 C 18.261112 18.016112 18.325834 18.025557 18.390279 18.038335 C 18.454445 18.051112 18.517779 18.067223 18.580557 18.086112 C 18.643334 18.105001 18.704723 18.127224 18.765279 18.152224 C 18.825834 18.177224 18.885001 18.205279 18.942779 18.236112 C 19.000557 18.266946 19.056668 18.300557 19.111112 18.336946 C 19.165557 18.373335 19.218057 18.412501 19.26889 18.45389 C 19.319445 18.495557 19.367779 18.539446 19.414168 18.585835 C 19.460557 18.632224 19.504445 18.680557 19.546112 18.731112 C 19.587501 18.781946 19.626668 18.834446 19.663057 18.88889 C 19.699446 18.943335 19.733057 18.999446 19.76389 19.057224 C 19.794723 19.115001 19.822779 19.174168 19.847779 19.234724 C 19.872779 19.295279 19.895001 19.356668 19.91389 19.419446 C 19.932779 19.482224 19.94889 19.545557 19.961668 19.609724 C 19.974446 19.674168 19.98389 19.73889 19.990279 19.80389 C 19.996668 19.869168 20.000001 19.934446 20.000001 20.000001 Z M 20.000001 20.000001 " stroke="#193cb8" stroke-width="2.25" stroke-opacity="1" stroke-miterlimit="4"/><path stroke-linecap="round" transform="matrix(14.062499, 0, 0, 14.062499, 18.750003, 18.749999)" fill="none" stroke-linejoin="round" d="M 11 20.000001 C 11 20.065557 10.996667 20.130835 10.990278 20.196113 C 10.983889 20.261113 10.974445 20.325835 10.961667 20.390279 C 10.948889 20.454446 10.932778 20.517779 10.913889 20.580557 C 10.895 20.643335 10.872778 20.704724 10.847778 20.765279 C 10.822778 20.825835 10.794723 20.885001 10.763889 20.942779 C 10.733056 21.000557 10.699445 21.056668 10.663056 21.111113 C 10.626667 21.165557 10.5875 21.218057 10.546112 21.26889 C 10.504445 21.319446 10.460556 21.367779 10.414167 21.414168 C 10.367778 21.460557 10.319445 21.504446 10.268889 21.546113 C 10.218056 21.587502 10.165556 21.626668 10.111112 21.663057 C 10.056667 21.699446 10.000556 21.733057 9.942778 21.76389 C 9.885 21.794724 9.825834 21.822779 9.765278 21.847779 C 9.704723 21.872779 9.643334 21.895002 9.580556 21.91389 C 9.517778 21.932779 9.454445 21.94889 9.390278 21.961668 C 9.325834 21.974446 9.261111 21.98389 9.196111 21.990279 C 9.130834 21.996668 9.065556 22.000002 9 22.000002 C 8.934445 22.000002 8.869167 21.996668 8.803889 21.990279 C 8.738889 21.98389 8.674167 21.974446 8.609723 21.961668 C 8.545556 21.94889 8.482223 21.932779 8.419445 21.91389 C 8.356667 21.895002 8.295278 21.872779 8.234723 21.847779 C 8.174167 21.822779 8.115 21.794724 8.057223 21.76389 C 7.999445 21.733057 7.943334 21.699446 7.888889 21.663057 C 7.834445 21.626668 7.781945 21.587502 7.731111 21.546113 C 7.680556 21.504446 7.632222 21.460557 7.585834 21.414168 C 7.539445 21.367779 7.495556 21.319446 7.453889 21.26889 C 7.4125 21.218057 7.373334 21.165557 7.336945 21.111113 C 7.300556 21.056668 7.266945 21.000557 7.236111 20.942779 C 7.205278 20.885001 7.177222 20.825835 7.152222 20.765279 C 7.127222 20.704724 7.105 20.643335 7.086111 20.580557 C 7.067222 20.517779 7.051111 20.454446 7.038334 20.390279 C 7.025556 20.325835 7.016111 20.261113 7.009722 20.196113 C 7.003334 20.130835 7 20.065557 7 20.000001 C 7 19.934446 7.003334 19.869168 7.009722 19.80389 C 7.016111 19.73889 7.025556 19.674168 7.038334 19.609724 C 7.051111 19.545557 7.067222 19.482224 7.086111 19.419446 C 7.105 19.356668 7.127222 19.295279 7.152222 19.234724 C 7.177222 19.174168 7.205278 19.115001 7.236111 19.057224 C 7.266945 18.999446 7.300556 18.943335 7.336945 18.88889 C 7.373334 18.834446 7.4125 18.781946 7.453889 18.731112 C 7.495556 18.680557 7.539445 18.632224 7.585834 18.585835 C 7.632222 18.539446 7.680556 18.495557 7.731111 18.45389 C 7.781945 18.412501 7.834445 18.373335 7.888889 18.336946 C 7.943334 18.300557 7.999445 18.266946 8.057223 18.236112 C 8.115 18.205279 8.174167 18.177224 8.234723 18.152224 C 8.295278 18.127224 8.356667 18.105001 8.419445 18.086112 C 8.482223 18.067223 8.545556 18.051112 8.609723 18.038335 C 8.674167 18.025557 8.738889 18.016112 8.803889 18.009723 C 8.869167 18.003335 8.934445 18.000001 9 18.000001 C 9.065556 18.000001 9.130834 18.003335 9.196111 18.009723 C 9.261111 18.016112 9.325834 18.025557 9.390278 18.038335 C 9.454445 18.051112 9.517778 18.067223 9.580556 18.086112 C 9.643334 18.105001 9.704723 18.127224 9.765278 18.152224 C 9.825834 18.177224 9.885 18.205279 9.942778 18.236112 C 10.000556 18.266946 10.056667 18.300557 10.111112 18.336946 C 10.165556 18.373335 10.218056 18.412501 10.268889 18.45389 C 10.319445 18.495557 10.367778 18.539446 10.414167 18.585835 C 10.460556 18.632224 10.504445 18.680557 10.546112 18.731112 C 10.5875 18.781946 10.626667 18.834446 10.663056 18.88889 C 10.699445 18.943335 10.733056 18.999446 10.763889 19.057224 C 10.794723 19.115001 10.822778 19.174168 10.847778 19.234724 C 10.872778 19.295279 10.895 19.356668 10.913889 19.419446 C 10.932778 19.482224 10.948889 19.545557 10.961667 19.609724 C 10.974445 19.674168 10.983889 19.73889 10.990278 19.80389 C 10.996667 19.869168 11 19.934446 11 20.000001 Z M 11 20.000001 " stroke="#193cb8" stroke-width="2.25" stroke-opacity="1" stroke-miterlimit="4"/></svg>