<svg xmlns="http://www.w3.org/2000/svg" xmlns:xlink="http://www.w3.org/1999/xlink" width="500" zoomAndPan="magnify" viewBox="0 0 375 374.999991" height="500" preserveAspectRatio="xMidYMid meet" version="1.0"><defs><clipPath id="ec16327ae8"><path d="M 187.5 0 C 83.945312 0 0 83.945312 0 187.5 C 0 291.054688 83.945312 375 187.5 375 C 291.054688 375 375 291.054688 375 187.5 C 375 83.945312 291.054688 0 187.5 0 Z M 187.5 0 " clip-rule="nonzero"/></clipPath><clipPath id="3f2f4c3052"><path d="M 0 0 L 375 0 L 375 375 L 0 375 Z M 0 0 " clip-rule="nonzero"/></clipPath><clipPath id="5dcf894e51"><path d="M 187.5 0 C 83.945312 0 0 83.945312 0 187.5 C 0 291.054688 83.945312 375 187.5 375 C 291.054688 375 375 291.054688 375 187.5 C 375 83.945312 291.054688 0 187.5 0 Z M 187.5 0 " clip-rule="nonzero"/></clipPath><clipPath id="c8d609ecef"><rect x="0" width="375" y="0" height="375"/></clipPath></defs><g clip-path="url(#ec16327ae8)"><g transform="matrix(1, 0, 0, 1, 0, 0)"><g clip-path="url(#c8d609ecef)"><g clip-path="url(#3f2f4c3052)"><g clip-path="url(#5dcf894e51)"><rect x="-82.5" width="540" fill="#193cb8" height="539.999987" y="-82.499998" fill-opacity="1"/></g></g></g></g></g><path stroke-linecap="round" transform="matrix(12.499999, 0, 0, 12.499999, 37.500002, 37.499998)" fill="none" stroke-linejoin="round" d="M 22.000002 18.000002 L 6 18.000002 C 5.934375 18.000002 5.869063 17.996877 5.804063 17.990314 C 5.73875 17.984064 5.674063 17.974377 5.609688 17.961564 C 5.545625 17.948752 5.482188 17.932814 5.419375 17.913752 C 5.356875 17.895002 5.295 17.872814 5.234688 17.847814 C 5.174063 17.822814 5.115 17.794689 5.057188 17.763752 C 4.999375 17.732814 4.943438 17.699377 4.88875 17.662814 C 4.834375 17.626564 4.781875 17.587502 4.73125 17.545939 C 4.680625 17.504377 4.632188 17.460627 4.585938 17.414064 C 4.539375 17.367814 4.495625 17.319377 4.454063 17.268752 C 4.4125 17.218127 4.373438 17.165627 4.337188 17.111252 C 4.300625 17.056564 4.267188 17.000627 4.23625 16.942814 C 4.205313 16.885002 4.177188 16.825939 4.152188 16.765314 C 4.127188 16.705002 4.105 16.643127 4.08625 16.580627 C 4.067188 16.517814 4.05125 16.454377 4.038438 16.390314 C 4.025625 16.325939 4.015938 16.261252 4.009688 16.195939 C 4.003125 16.130939 4 16.065627 4 16.000002 L 4 7.000001 C 4 6.934376 3.996875 6.869063 3.990313 6.804063 C 3.984063 6.738751 3.974375 6.674063 3.961563 6.609688 C 3.94875 6.545626 3.932813 6.482188 3.91375 6.419376 C 3.895 6.356876 3.872813 6.295001 3.847813 6.234688 C 3.822813 6.174063 3.794688 6.115001 3.76375 6.057188 C 3.732813 5.999376 3.699375 5.943438 3.662813 5.888751 C 3.626563 5.834376 3.5875 5.781876 3.545938 5.731251 C 3.504375 5.680626 3.460625 5.632188 3.414063 5.585938 C 3.367813 5.539376 3.319375 5.495626 3.26875 5.454063 C 3.218125 5.412501 3.165625 5.373438 3.11125 5.337188 C 3.056563 5.300626 3.000625 5.267188 2.942813 5.236251 C 2.885 5.205313 2.825938 5.177188 2.765313 5.152188 C 2.705 5.127188 2.643125 5.105001 2.580625 5.086251 C 2.517813 5.067188 2.454375 5.051251 2.390313 5.038438 C 2.325938 5.025626 2.26125 5.015938 2.195938 5.009688 C 2.130938 5.003126 2.065625 5.000001 2 5.000001 " stroke="#ffffff" stroke-width="2.25" stroke-opacity="1" stroke-miterlimit="4"/><path stroke-linecap="round" transform="matrix(12.499999, 0, 0, 12.499999, 37.500002, 37.499998)" fill="none" stroke-linejoin="round" d="M 17.000001 14.000001 L 17.000001 4.000001 C 17.000001 3.934376 16.996876 3.869063 16.990314 3.804063 C 16.984064 3.738751 16.974376 3.674063 16.961564 3.609688 C 16.948751 3.545626 16.932814 3.482188 16.913751 3.419376 C 16.895001 3.356876 16.872814 3.295 16.847814 3.234688 C 16.822814 3.174063 16.794689 3.115 16.763751 3.057188 C 16.732814 2.999375 16.699376 2.943438 16.662814 2.88875 C 16.626564 2.834375 16.587501 2.781875 16.545939 2.73125 C 16.504376 2.680625 16.460626 2.632188 16.414064 2.585938 C 16.367814 2.539375 16.319376 2.495625 16.268751 2.454063 C 16.218126 2.4125 16.165626 2.373438 16.111251 2.337188 C 16.056564 2.300625 16.000626 2.267188 15.942814 2.23625 C 15.885001 2.205313 15.825939 2.177188 15.765314 2.152188 C 15.705001 2.127188 15.643126 2.105 15.580626 2.08625 C 15.517814 2.067188 15.454376 2.05125 15.390314 2.038438 C 15.325939 2.025625 15.261251 2.015938 15.195939 2.009688 C 15.130939 2.003125 15.065626 2 15.000001 2 L 14.000001 2 C 13.934376 2 13.869064 2.003125 13.804064 2.009688 C 13.738751 2.015938 13.674064 2.025625 13.609689 2.038438 C 13.545626 2.05125 13.482189 2.067188 13.419376 2.08625 C 13.356876 2.105 13.295001 2.127188 13.234689 2.152188 C 13.174064 2.177188 13.115001 2.205313 13.057189 2.23625 C 12.999376 2.267188 12.943439 2.300625 12.888751 2.337188 C 12.834376 2.373438 12.781876 2.4125 12.731251 2.454063 C 12.680626 2.495625 12.632188 2.539375 12.585938 2.585938 C 12.539376 2.632188 12.495626 2.680625 12.454063 2.73125 C 12.412501 2.781875 12.373438 2.834375 12.337188 2.88875 C 12.300626 2.943438 12.267188 2.999375 12.236251 3.057188 C 12.205313 3.115 12.177188 3.174063 12.152188 3.234688 C 12.127188 3.295 12.105001 3.356876 12.086251 3.419376 C 12.067188 3.482188 12.051251 3.545626 12.038438 3.609688 C 12.025626 3.674063 12.015938 3.738751 12.009688 3.804063 C 12.003126 3.869063 12.000001 3.934376 12.000001 4.000001 L 12.000001 14.000001 " stroke="#ffffff" stroke-width="2.25" stroke-opacity="1" stroke-miterlimit="4"/><path stroke-linecap="round" transform="matrix(12.499999, 0, 0, 12.499999, 37.500002, 37.499998)" fill="none" stroke-linejoin="round" d="M 9.000001 6.000001 L 20.000002 6.000001 C 20.065627 6.000001 20.130627 6.006251 20.195002 6.019063 C 20.259377 6.031876 20.321877 6.050938 20.382814 6.076251 C 20.443439 6.101251 20.500939 6.132188 20.555627 6.168438 C 20.610314 6.205001 20.660627 6.246563 20.707189 6.292813 C 20.753439 6.339376 20.795002 6.389688 20.831564 6.444376 C 20.867814 6.499063 20.898752 6.556563 20.923752 6.617188 C 20.949064 6.678126 20.968127 6.740626 20.980627 6.805001 C 20.993439 6.869376 21.000002 6.934376 21.000002 7.000001 L 21.000002 13.000001 C 21.000002 13.065626 20.993439 13.130626 20.980627 13.195001 C 20.968127 13.259376 20.949064 13.321876 20.923752 13.382814 C 20.898752 13.443439 20.867814 13.500939 20.831564 13.555626 C 20.795002 13.610314 20.753439 13.660626 20.707189 13.707189 C 20.660627 13.753439 20.610314 13.795001 20.555627 13.831564 C 20.500939 13.867814 20.443439 13.898751 20.382814 13.923751 C 20.321877 13.949064 20.259377 13.968126 20.195002 13.980939 C 20.130627 13.993439 20.065627 14.000001 20.000002 14.000001 L 9.000001 14.000001 C 8.934376 14.000001 8.869376 13.993439 8.805001 13.980939 C 8.740626 13.968126 8.678126 13.949064 8.617188 13.923751 C 8.556563 13.898751 8.499063 13.867814 8.444376 13.831564 C 8.389688 13.795001 8.339376 13.753439 8.292813 13.707189 C 8.246563 13.660626 8.205001 13.610314 8.168438 13.555626 C 8.132188 13.500939 8.101251 13.443439 8.076251 13.382814 C 8.050938 13.321876 8.031876 13.259376 8.019063 13.195001 C 8.006251 13.130626 8.000001 13.065626 8.000001 13.000001 L 8.000001 7.000001 C 8.000001 6.934376 8.006251 6.869376 8.019063 6.805001 C 8.031876 6.740626 8.050938 6.678126 8.076251 6.617188 C 8.101251 6.556563 8.132188 6.499063 8.168438 6.444376 C 8.205001 6.389688 8.246563 6.339376 8.292813 6.292813 C 8.339376 6.246563 8.389688 6.205001 8.444376 6.168438 C 8.499063 6.132188 8.556563 6.101251 8.617188 6.076251 C 8.678126 6.050938 8.740626 6.031876 8.805001 6.019063 C 8.869376 6.006251 8.934376 6.000001 9.000001 6.000001 Z M 9.000001 6.000001 " stroke="#ffffff" stroke-width="2.25" stroke-opacity="1" stroke-miterlimit="4"/><path stroke-linecap="round" transform="matrix(12.499999, 0, 0, 12.499999, 37.500002, 37.499998)" fill="none" stroke-linejoin="round" d="M 20.000002 20.000002 C 20.000002 20.065627 19.996877 20.13094 19.990314 20.19594 C 19.984064 20.261252 19.974377 20.32594 19.961564 20.390315 C 19.948752 20.454377 19.932814 20.517815 19.913752 20.580627 C 19.895002 20.643127 19.872814 20.705002 19.847814 20.765315 C 19.822814 20.82594 19.794689 20.885002 19.763752 20.942815 C 19.732814 21.000627 19.699377 21.056565 19.662814 21.111252 C 19.626564 21.165627 19.587502 21.218127 19.545939 21.268752 C 19.504377 21.319377 19.460627 21.367815 19.414064 21.414065 C 19.367814 21.460627 19.319377 21.504377 19.268752 21.54594 C 19.218127 21.587502 19.165627 21.626565 19.111252 21.662815 C 19.056564 21.699377 19.000627 21.732815 18.942814 21.763752 C 18.885002 21.79469 18.825939 21.822815 18.765314 21.847815 C 18.705002 21.872815 18.643127 21.895002 18.580627 21.913752 C 18.517814 21.932815 18.454377 21.948752 18.390314 21.961565 C 18.325939 21.974377 18.261252 21.984065 18.195939 21.990315 C 18.130939 21.996877 18.065626 22.000002 18.000001 22.000002 C 17.934376 22.000002 17.869064 21.996877 17.804064 21.990315 C 17.738751 21.984065 17.674064 21.974377 17.609689 21.961565 C 17.545626 21.948752 17.482189 21.932815 17.419376 21.913752 C 17.356876 21.895002 17.295001 21.872815 17.234689 21.847815 C 17.174064 21.822815 17.115001 21.79469 17.057189 21.763752 C 16.999376 21.732815 16.943439 21.699377 16.888751 21.662815 C 16.834376 21.626565 16.781876 21.587502 16.731251 21.54594 C 16.680626 21.504377 16.632189 21.460627 16.585939 21.414065 C 16.539376 21.367815 16.495626 21.319377 16.454064 21.268752 C 16.412501 21.218127 16.373439 21.165627 16.337189 21.111252 C 16.300626 21.056565 16.267189 21.000627 16.236251 20.942815 C 16.205314 20.885002 16.177189 20.82594 16.152189 20.765315 C 16.127189 20.705002 16.105001 20.643127 16.086251 20.580627 C 16.067189 20.517815 16.051251 20.454377 16.038439 20.390315 C 16.025626 20.32594 16.015939 20.261252 16.009689 20.19594 C 16.003126 20.13094 16.000001 20.065627 16.000001 20.000002 C 16.000001 19.934377 16.003126 19.869065 16.009689 19.804065 C 16.015939 19.738752 16.025626 19.674064 16.038439 19.609689 C 16.051251 19.545627 16.067189 19.482189 16.086251 19.419377 C 16.105001 19.356877 16.127189 19.295002 16.152189 19.234689 C 16.177189 19.174064 16.205314 19.115002 16.236251 19.057189 C 16.267189 18.999377 16.300626 18.943439 16.337189 18.888752 C 16.373439 18.834377 16.412501 18.781877 16.454064 18.731252 C 16.495626 18.680627 16.539376 18.632189 16.585939 18.585939 C 16.632189 18.539377 16.680626 18.495627 16.731251 18.454064 C 16.781876 18.412502 16.834376 18.373439 16.888751 18.337189 C 16.943439 18.300627 16.999376 18.266877 17.057189 18.236252 C 17.115001 18.205314 17.174064 18.177189 17.234689 18.152189 C 17.295001 18.127189 17.356876 18.105002 17.419376 18.086252 C 17.482189 18.067189 17.545626 18.051252 17.609689 18.038439 C 17.674064 18.025627 17.738751 18.015939 17.804064 18.009689 C 17.869064 18.003127 17.934376 18.000002 18.000001 18.000002 C 18.065626 18.000002 18.130939 18.003127 18.195939 18.009689 C 18.261252 18.015939 18.325939 18.025627 18.390314 18.038439 C 18.454377 18.051252 18.517814 18.067189 18.580627 18.086252 C 18.643127 18.105002 18.705002 18.127189 18.765314 18.152189 C 18.825939 18.177189 18.885002 18.205314 18.942814 18.236252 C 19.000627 18.266877 19.056564 18.300627 19.111252 18.337189 C 19.165627 18.373439 19.218127 18.412502 19.268752 18.454064 C 19.319377 18.495627 19.367814 18.539377 19.414064 18.585939 C 19.460627 18.632189 19.504377 18.680627 19.545939 18.731252 C 19.587502 18.781877 19.626564 18.834377 19.662814 18.888752 C 19.699377 18.943439 19.732814 18.999377 19.763752 19.057189 C 19.794689 19.115002 19.822814 19.174064 19.847814 19.234689 C 19.872814 19.295002 19.895002 19.356877 19.913752 19.419377 C 19.932814 19.482189 19.948752 19.545627 19.961564 19.609689 C 19.974377 19.674064 19.984064 19.738752 19.990314 19.804065 C 19.996877 19.869065 20.000002 19.934377 20.000002 20.000002 Z M 20.000002 20.000002 " stroke="#ffffff" stroke-width="2.25" stroke-opacity="1" stroke-miterlimit="4"/><path stroke-linecap="round" transform="matrix(12.499999, 0, 0, 12.499999, 37.500002, 37.499998)" fill="none" stroke-linejoin="round" d="M 11.000001 20.000002 C 11.000001 20.065627 10.996876 20.13094 10.990313 20.19594 C 10.984063 20.261252 10.974376 20.32594 10.961563 20.390315 C 10.948751 20.454377 10.932813 20.517815 10.913751 20.580627 C 10.895001 20.643127 10.872813 20.705002 10.847813 20.765315 C 10.822813 20.82594 10.794688 20.885002 10.763751 20.942815 C 10.732813 21.000627 10.699376 21.056565 10.662813 21.111252 C 10.626563 21.165627 10.587501 21.218127 10.545938 21.268752 C 10.504376 21.319377 10.460626 21.367815 10.414063 21.414065 C 10.367813 21.460627 10.319376 21.504377 10.268751 21.54594 C 10.218126 21.587502 10.165626 21.626565 10.111251 21.662815 C 10.056563 21.699377 10.000626 21.732815 9.942813 21.763752 C 9.885001 21.79469 9.825938 21.822815 9.765313 21.847815 C 9.705001 21.872815 9.643126 21.895002 9.580626 21.913752 C 9.517813 21.932815 9.454376 21.948752 9.390313 21.961565 C 9.325938 21.974377 9.261251 21.984065 9.195938 21.990315 C 9.130938 21.996877 9.065626 22.000002 9.000001 22.000002 C 8.934376 22.000002 8.869063 21.996877 8.804063 21.990315 C 8.738751 21.984065 8.674063 21.974377 8.609688 21.961565 C 8.545626 21.948752 8.482188 21.932815 8.419376 21.913752 C 8.356876 21.895002 8.295001 21.872815 8.234688 21.847815 C 8.174063 21.822815 8.115001 21.79469 8.057188 21.763752 C 7.999376 21.732815 7.943438 21.699377 7.888751 21.662815 C 7.834376 21.626565 7.781876 21.587502 7.731251 21.54594 C 7.680626 21.504377 7.632188 21.460627 7.585938 21.414065 C 7.539376 21.367815 7.495626 21.319377 7.454063 21.268752 C 7.412501 21.218127 7.373438 21.165627 7.337188 21.111252 C 7.300626 21.056565 7.267188 21.000627 7.23625 20.942815 C 7.205313 20.885002 7.177188 20.82594 7.152188 20.765315 C 7.127188 20.705002 7.105 20.643127 7.08625 20.580627 C 7.067188 20.517815 7.05125 20.454377 7.038438 20.390315 C 7.025625 20.32594 7.015938 20.261252 7.009688 20.19594 C 7.003125 20.13094 7 20.065627 7 20.000002 C 7 19.934377 7.003125 19.869065 7.009688 19.804065 C 7.015938 19.738752 7.025625 19.674064 7.038438 19.609689 C 7.05125 19.545627 7.067188 19.482189 7.08625 19.419377 C 7.105 19.356877 7.127188 19.295002 7.152188 19.234689 C 7.177188 19.174064 7.205313 19.115002 7.23625 19.057189 C 7.267188 18.999377 7.300626 18.943439 7.337188 18.888752 C 7.373438 18.834377 7.412501 18.781877 7.454063 18.731252 C 7.495626 18.680627 7.539376 18.632189 7.585938 18.585939 C 7.632188 18.539377 7.680626 18.495627 7.731251 18.454064 C 7.781876 18.412502 7.834376 18.373439 7.888751 18.337189 C 7.943438 18.300627 7.999376 18.266877 8.057188 18.236252 C 8.115001 18.205314 8.174063 18.177189 8.234688 18.152189 C 8.295001 18.127189 8.356876 18.105002 8.419376 18.086252 C 8.482188 18.067189 8.545626 18.051252 8.609688 18.038439 C 8.674063 18.025627 8.738751 18.015939 8.804063 18.009689 C 8.869063 18.003127 8.934376 18.000002 9.000001 18.000002 C 9.065626 18.000002 9.130938 18.003127 9.195938 18.009689 C 9.261251 18.015939 9.325938 18.025627 9.390313 18.038439 C 9.454376 18.051252 9.517813 18.067189 9.580626 18.086252 C 9.643126 18.105002 9.705001 18.127189 9.765313 18.152189 C 9.825938 18.177189 9.885001 18.205314 9.942813 18.236252 C 10.000626 18.266877 10.056563 18.300627 10.111251 18.337189 C 10.165626 18.373439 10.218126 18.412502 10.268751 18.454064 C 10.319376 18.495627 10.367813 18.539377 10.414063 18.585939 C 10.460626 18.632189 10.504376 18.680627 10.545938 18.731252 C 10.587501 18.781877 10.626563 18.834377 10.662813 18.888752 C 10.699376 18.943439 10.732813 18.999377 10.763751 19.057189 C 10.794688 19.115002 10.822813 19.174064 10.847813 19.234689 C 10.872813 19.295002 10.895001 19.356877 10.913751 19.419377 C 10.932813 19.482189 10.948751 19.545627 10.961563 19.609689 C 10.974376 19.674064 10.984063 19.738752 10.990313 19.804065 C 10.996876 19.869065 11.000001 19.934377 11.000001 20.000002 Z M 11.000001 20.000002 " stroke="#ffffff" stroke-width="2.25" stroke-opacity="1" stroke-miterlimit="4"/></svg>